<mxfile host="app.diagrams.net" modified="2024-02-25T14:14:13.435Z" agent="Mozilla/5.0 (Linux; Android 10; K) AppleWebKit/537.36 (KHTML, like Gecko) Chrome/121.0.0.0 Mobile Safari/537.36" version="23.1.6" etag="mbcltE3AlOVQvUErkEqJ" type="github">
  <diagram name="Page-1" id="DmOPUN3l1unykDurt95e">
    <mxGraphModel>
      <root>
        <mxCell id="0" />
        <mxCell id="1" parent="0" />
      </root>
    </mxGraphModel>
  </diagram>
</mxfile>
